<svg xmlns="http://www.w3.org/2000/svg" width="30" height="30" viewBox="0 0 30 30" fill="none">
<path d="M19.2281 0.665656L17.1836 5.91816L19.1714 10.1449L21.3382 4.69051H26.0651V23.2961C26.0651 24.0055 25.7887 24.6875 25.2962 25.1876C24.8054 25.6896 24.141 25.9715 23.4465 25.9715C22.8938 25.9715 21.9388 25.655 21.5614 24.8857L18.6701 18.3765L18.6506 18.4074L13.8776 7.70961L13.8936 7.6896L11.8916 3.19733C10.7612 0.867536 8.44918 0 6.55348 0C4.81545 0 3.14829 0.707487 1.92051 1.96423C0.690958 3.22279 0 4.92877 0 6.70749L0.0655525 29.3307H9.98878L12.5542 23.649L10.5717 19.4204L7.87338 25.3058H3.93669V6.70749C3.93669 5.99636 4.21308 5.31434 4.70383 4.81237C5.19459 4.3104 5.86075 4.02667 6.55525 4.02667C6.90427 4.02667 8.08244 4.10852 8.51296 5.27796L10.7329 10.2722L11.4664 11.94L16.2198 22.6359C17.049 24.4638 17.9702 26.4862 18.3742 27.3574C19.198 29.1197 21.3382 30 23.4448 30C24.3058 30 25.158 29.8272 25.9535 29.4889C26.749 29.1525 27.4718 28.6578 28.0795 28.0358C28.6872 27.4138 29.1708 26.6735 29.5004 25.8606C29.8299 25.0458 30 24.1746 30 23.2943V0.665656H19.2299H19.2281Z" fill="#FC5E02"/>
</svg>
